<svg width="206" height="48" viewBox="0 0 206 48" fill="none" xmlns="http://www.w3.org/2000/svg">
<rect width="206" height="48" fill="#1E1E1E"/>
<rect width="206" height="48" rx="24" fill="url(#paint0_linear_0_1)"/>
<rect width="206" height="48" rx="24" fill="url(#paint1_linear_0_1)" fill-opacity="0.2"/>
<path d="M42.74 31V17H48.8C50.0533 17 51.1333 17.2067 52.04 17.62C52.9467 18.02 53.6467 18.6 54.14 19.36C54.6333 20.12 54.88 21.0267 54.88 22.08C54.88 23.12 54.6333 24.02 54.14 24.78C53.6467 25.54 52.9467 26.1267 52.04 26.54C51.1333 26.94 50.0533 27.14 48.8 27.14H44.54L45.98 25.68V31H42.74ZM45.98 26.04L44.54 24.5H48.62C49.62 24.5 50.3667 24.2867 50.86 23.86C51.3533 23.4333 51.6 22.84 51.6 22.08C51.6 21.3067 51.3533 20.7067 50.86 20.28C50.3667 19.8533 49.62 19.64 48.62 19.64H44.54L45.98 18.1V26.04ZM63.1197 31V28.9L62.9197 28.44V24.68C62.9197 24.0133 62.713 23.4933 62.2997 23.12C61.8997 22.7467 61.2797 22.56 60.4397 22.56C59.8664 22.56 59.2997 22.6533 58.7397 22.84C58.193 23.0133 57.7264 23.2533 57.3397 23.56L56.2197 21.38C56.8064 20.9667 57.513 20.6467 58.3397 20.42C59.1664 20.1933 60.0064 20.08 60.8597 20.08C62.4997 20.08 63.773 20.4667 64.6797 21.24C65.5864 22.0133 66.0397 23.22 66.0397 24.86V31H63.1197ZM59.8397 31.16C58.9997 31.16 58.2797 31.02 57.6797 30.74C57.0797 30.4467 56.6197 30.0533 56.2997 29.56C55.9797 29.0667 55.8197 28.5133 55.8197 27.9C55.8197 27.26 55.973 26.7 56.2797 26.22C56.5997 25.74 57.0997 25.3667 57.7797 25.1C58.4597 24.82 59.3464 24.68 60.4397 24.68H63.2997V26.5H60.7797C60.0464 26.5 59.5397 26.62 59.2597 26.86C58.993 27.1 58.8597 27.4 58.8597 27.76C58.8597 28.16 59.013 28.48 59.3197 28.72C59.6397 28.9467 60.073 29.06 60.6197 29.06C61.1397 29.06 61.6064 28.94 62.0197 28.7C62.433 28.4467 62.733 28.08 62.9197 27.6L63.3997 29.04C63.173 29.7333 62.7597 30.26 62.1597 30.62C61.5597 30.98 60.7864 31.16 59.8397 31.16ZM73.87 31.16C72.71 31.16 71.6767 30.9267 70.77 30.46C69.8633 29.98 69.15 29.32 68.63 28.48C68.1233 27.64 67.87 26.6867 67.87 25.62C67.87 24.54 68.1233 23.5867 68.63 22.76C69.15 21.92 69.8633 21.2667 70.77 20.8C71.6767 20.32 72.71 20.08 73.87 20.08C75.0033 20.08 75.99 20.32 76.83 20.8C77.67 21.2667 78.29 21.94 78.69 22.82L76.27 24.12C75.99 23.6133 75.6367 23.24 75.21 23C74.7967 22.76 74.3433 22.64 73.85 22.64C73.3167 22.64 72.8367 22.76 72.41 23C71.9833 23.24 71.6433 23.58 71.39 24.02C71.15 24.46 71.03 24.9933 71.03 25.62C71.03 26.2467 71.15 26.78 71.39 27.22C71.6433 27.66 71.9833 28 72.41 28.24C72.8367 28.48 73.3167 28.6 73.85 28.6C74.3433 28.6 74.7967 28.4867 75.21 28.26C75.6367 28.02 75.99 27.64 76.27 27.12L78.69 28.44C78.29 29.3067 77.67 29.98 76.83 30.46C75.99 30.9267 75.0033 31.16 73.87 31.16ZM85.5692 31.16C84.4092 31.16 83.3759 30.9267 82.4692 30.46C81.5626 29.98 80.8492 29.32 80.3292 28.48C79.8226 27.64 79.5692 26.6867 79.5692 25.62C79.5692 24.54 79.8226 23.5867 80.3292 22.76C80.8492 21.92 81.5626 21.2667 82.4692 20.8C83.3759 20.32 84.4092 20.08 85.5692 20.08C86.7026 20.08 87.6892 20.32 88.5292 20.8C89.3692 21.2667 89.9892 21.94 90.3892 22.82L87.9692 24.12C87.6892 23.6133 87.3359 23.24 86.9092 23C86.4959 22.76 86.0426 22.64 85.5492 22.64C85.0159 22.64 84.5359 22.76 84.1092 23C83.6826 23.24 83.3426 23.58 83.0892 24.02C82.8492 24.46 82.7292 24.9933 82.7292 25.62C82.7292 26.2467 82.8492 26.78 83.0892 27.22C83.3426 27.66 83.6826 28 84.1092 28.24C84.5359 28.48 85.0159 28.6 85.5492 28.6C86.0426 28.6 86.4959 28.4867 86.9092 28.26C87.3359 28.02 87.6892 27.64 87.9692 27.12L90.3892 28.44C89.9892 29.3067 89.3692 29.98 88.5292 30.46C87.6892 30.9267 86.7026 31.16 85.5692 31.16ZM99.0652 26.88C98.6252 27.12 98.1385 27.3133 97.6052 27.46C97.0718 27.6067 96.4852 27.68 95.8452 27.68C94.4318 27.68 93.3452 27.36 92.5852 26.72C91.8252 26.0667 91.4452 25.0333 91.4452 23.62V20.24H94.5652V23.42C94.5652 24.0867 94.7385 24.5667 95.0852 24.86C95.4318 25.14 95.9185 25.28 96.5452 25.28C96.9985 25.28 97.4318 25.2267 97.8452 25.12C98.2718 25.0133 98.6785 24.86 99.0652 24.66V26.88ZM98.8452 31V20.24H101.965V31H98.8452ZM104.961 31V20.24H108.061V26.64L113.301 20.24H116.161V31H113.061V24.6L107.841 31H104.961ZM121.46 31V22.08L122.16 22.8H117.82V20.24H128.2V22.8H123.86L124.56 22.08V31H121.46ZM136.303 31V28.9L136.103 28.44V24.68C136.103 24.0133 135.897 23.4933 135.483 23.12C135.083 22.7467 134.463 22.56 133.623 22.56C133.05 22.56 132.483 22.6533 131.923 22.84C131.377 23.0133 130.91 23.2533 130.523 23.56L129.403 21.38C129.99 20.9667 130.697 20.6467 131.523 20.42C132.35 20.1933 133.19 20.08 134.043 20.08C135.683 20.08 136.957 20.4667 137.863 21.24C138.77 22.0133 139.223 23.22 139.223 24.86V31H136.303ZM133.023 31.16C132.183 31.16 131.463 31.02 130.863 30.74C130.263 30.4467 129.803 30.0533 129.483 29.56C129.163 29.0667 129.003 28.5133 129.003 27.9C129.003 27.26 129.157 26.7 129.463 26.22C129.783 25.74 130.283 25.3667 130.963 25.1C131.643 24.82 132.53 24.68 133.623 24.68H136.483V26.5H133.963C133.23 26.5 132.723 26.62 132.443 26.86C132.177 27.1 132.043 27.4 132.043 27.76C132.043 28.16 132.197 28.48 132.503 28.72C132.823 28.9467 133.257 29.06 133.803 29.06C134.323 29.06 134.79 28.94 135.203 28.7C135.617 28.4467 135.917 28.08 136.103 27.6L136.583 29.04C136.357 29.7333 135.943 30.26 135.343 30.62C134.743 30.98 133.97 31.16 133.023 31.16ZM144.234 31V22.08L144.934 22.8H140.594V20.24H150.974V22.8H146.634L147.334 22.08V31H144.234ZM158.457 23.68C159.87 23.6933 160.943 24.0133 161.677 24.64C162.423 25.2533 162.797 26.1267 162.797 27.26C162.797 28.4467 162.377 29.3733 161.537 30.04C160.697 30.6933 159.53 31.02 158.037 31.02L152.637 31V20.24H155.737V23.68H158.457ZM157.757 28.8C158.357 28.8133 158.817 28.6867 159.137 28.42C159.457 28.1533 159.617 27.7533 159.617 27.22C159.617 26.6867 159.457 26.3067 159.137 26.08C158.817 25.84 158.357 25.7133 157.757 25.7L155.737 25.68V28.8H157.757Z" fill="white"/>
<defs>
<linearGradient id="paint0_linear_0_1" x1="135.415" y1="23.8168" x2="-46.9262" y2="103.47" gradientUnits="userSpaceOnUse">
<stop stop-color="#2BEF6E"/>
<stop offset="0.9999" stop-color="#5CCF83" stop-opacity="0.0572917"/>
<stop offset="1" stop-color="#D9D9D9" stop-opacity="0"/>
</linearGradient>
<linearGradient id="paint1_linear_0_1" x1="220.844" y1="48" x2="186.338" y2="99.7181" gradientUnits="userSpaceOnUse">
<stop stop-color="#2BEF6E"/>
<stop offset="1" stop-opacity="0"/>
</linearGradient>
</defs>
</svg>
